<svg width="1053" height="694" viewBox="0 0 1053 694" fill="none" xmlns="http://www.w3.org/2000/svg">
<g clip-path="url(#clip0_62_326)">
<path d="M884.502 360.216C891.556 352.445 913.605 331.601 920.922 347.288L905.159 364.558L908.23 368.923C915.98 359.592 923.657 353.884 931.383 351.054C949.089 344.554 966.963 353.308 986.133 368.611C993.235 374.272 1018.52 394.683 1003.55 402.743C994.819 407.444 980.375 391.182 970.778 388.807C957.223 385.425 944.531 394.324 930.375 385.737C926.728 383.506 925.385 375.663 919.507 382.163C924.977 406.077 957.031 391.949 970.538 396.77C984.286 401.663 1031.55 436.778 1039.85 448.483C1045.25 456.111 1050.29 473.836 1036.78 475.299C1022.55 476.834 994.411 443.35 982.391 435.027L989.468 423.61C984.142 413.488 981.071 425.961 976.8 430.566C972.674 435.003 966.412 441.168 961.661 444.789C956.335 448.867 936.373 456.255 935.534 457.454C934.526 458.845 935.773 462.659 937.765 463.546L948.297 460.02C950.865 460.644 976.728 498.133 978.816 502.979C980.927 507.848 981.335 511.997 980.543 515.139C978.432 523.486 967.779 524.877 957.271 514.324C945.898 502.859 936.469 483.31 925.025 470.622C922.722 468.056 919.219 466.952 916.891 464.362C901.632 447.404 880.855 426.8 882.055 405.765C882.558 397.058 886.829 388.255 896.858 379.621L892.683 376.287L879.463 386.432C868.955 379.62 878.12 367.268 884.502 360.216Z" fill="#FCEAEB"/>
<path d="M955.759 457.502C960.965 455.223 975.313 440.64 980.111 443.254C982.199 444.382 990.788 451.985 993.259 454.288C1004.2 464.458 1037.14 495.639 1014.88 508.399C995.61 519.433 967.803 468.511 955.759 457.502Z" fill="#FCEAEB"/>
<path d="M955.759 457.502C967.803 468.511 995.61 519.433 1014.88 508.399C1037.14 495.639 1004.2 464.458 993.259 454.288C990.788 451.985 982.199 444.382 980.111 443.254C975.313 440.64 960.965 455.223 955.759 457.502ZM970.538 396.77C957.031 391.949 924.977 406.077 919.507 382.163C925.385 375.663 926.728 383.506 930.375 385.737C944.531 394.324 957.223 385.425 970.778 388.807C980.375 391.182 994.819 407.444 1003.55 402.743C1018.52 394.683 993.235 374.272 986.133 368.611C966.963 353.308 949.089 344.554 931.383 351.054L928.6 345.057C945.178 333.088 973.441 349.71 987.621 360.408C1002.14 371.345 1029.61 393.964 1006.31 410.034C1021.5 422.483 1042.9 435.027 1050.86 453.736C1055.71 465.081 1052.52 480 1038.99 482.663C1034.09 483.622 1030.33 481.08 1026.15 481.775C1040.6 508.04 1010.65 528.307 989.708 508.855C988.269 511.014 987.813 513.22 987.333 515.451L980.543 515.139C981.335 511.997 980.927 507.848 978.816 502.979C976.728 498.133 950.865 460.644 948.297 460.02L937.765 463.546C935.773 462.659 934.526 458.845 935.533 457.454C936.373 456.255 956.335 448.867 961.661 444.789C966.412 441.168 972.674 435.003 976.8 430.566C981.071 425.961 984.142 413.488 989.468 423.61L982.391 435.027C994.411 443.35 1022.55 476.834 1036.78 475.299C1050.29 473.836 1045.25 456.111 1039.85 448.483C1031.55 436.778 984.286 401.663 970.538 396.77Z" fill="#E37091"/>
<path d="M920.466 113.02C933.422 138.301 922.266 166.268 903.12 214.288C888.125 251.849 871.114 278.641 856.215 300.9L810.101 251.825L789.876 270.798L840.068 324.214C815.044 358.753 792.347 382.427 770.538 404.973C735.197 441.527 719.482 451.362 704.367 458.03C680.279 468.655 657.87 471.054 642.659 471.366C635.557 471.533 628.455 471.725 621.354 471.893C581.838 472.877 542.299 473.836 502.784 474.819C501.872 473.212 500.936 471.629 499.976 470.094C526.632 463.93 553.551 452.897 578.887 432.725C586.421 426.728 597.817 417.758 608.902 405.909C643.643 383.458 675.744 361.967 706.311 323.278C741.052 279.289 778.336 207.284 756.839 183.97C751.776 178.501 744.962 176.51 740.212 176.534C686.061 176.606 631.886 176.678 577.712 176.774C576.32 141.899 574.905 107.024 573.489 72.1488H837.501C847.338 72.7245 901.896 76.754 920.466 113.02Z" fill="#E37091"/>
<path d="M896.858 379.62C886.829 388.255 882.558 397.058 882.054 405.765L875.696 405.333C875.984 400.296 876.512 395.163 876.2 394.228C875.025 390.822 867.635 389.79 866.915 379.285C866.363 371.106 872.098 367.172 873.561 359.88L840.068 324.214C844.051 318.721 848.081 312.964 852.184 306.872C853.504 304.905 854.847 302.938 856.215 300.9L894.386 341.531C905.735 332.345 921.666 329.275 928.6 345.057L931.383 351.054C923.657 353.884 915.98 359.592 908.23 368.923L905.159 364.558L920.922 347.288C913.604 331.601 891.555 352.445 884.502 360.216C878.12 367.268 868.955 379.62 879.463 386.432L892.683 376.286L896.858 379.62Z" fill="#E37091"/>
<path d="M882.055 405.765C880.855 426.8 901.632 447.404 916.891 464.362C919.219 466.952 922.722 468.055 925.025 470.622C936.469 483.31 945.898 502.859 957.27 514.324C967.779 524.877 978.432 523.486 980.543 515.139L987.333 515.451C986.757 518.329 986.157 521.208 983.518 524.062C962.669 546.584 937.645 497.965 927.256 485.421C907.678 461.795 881.215 446.516 875.721 413.92C875.385 411.953 875.481 408.667 875.697 405.333L882.055 405.765Z" fill="#E37091"/>
<path d="M810.102 251.825L856.215 300.9C854.847 302.938 853.504 304.905 852.184 306.872C848.081 312.964 844.051 318.721 840.068 324.214L789.876 270.798L810.102 251.825Z" fill="#E37091"/>
<path d="M573.201 224.194C608.926 242.83 643.019 284.35 642.659 330.714C642.395 362.447 626.032 387.608 608.902 405.909C608.254 406.34 607.582 406.748 606.934 407.18C580.207 424.45 543.283 445.485 496.114 464.266C490.739 456.662 484.741 450.378 478.023 446.133C445.874 425.817 402.64 437.354 367.395 440.712V472.061L367.251 479.089C345.178 478.681 323.177 476.834 301.704 471.485C306.022 446.324 298.465 419.556 276.296 394.132L254.823 416.99C267.443 432.533 272.097 447.332 271.018 461.124C257.198 455.031 243.714 446.996 230.686 436.394C172.817 389.263 162.788 320.088 160.677 302.627C159.597 293.752 158.349 278.521 159.933 259.5L188.172 312.293L212.644 299.221L168.21 216.158C170.706 207.931 173.825 199.416 177.735 190.782C184.477 175.887 200.528 141.539 237.188 114.459C268.426 91.3852 298.513 85.5327 333.566 78.6968C361.325 73.2761 381.166 72.5085 452.088 72.1487C486.997 71.9568 527.784 71.9089 573.489 72.1487H568.93C571.858 107.024 574.785 141.899 577.712 176.774C567.995 176.606 548.753 176.294 529.055 175.959C517.227 149.382 490.571 130.842 459.573 130.842C428.575 130.842 403.431 148.351 391.147 173.752H390.979C367.467 173.488 370.514 173.704 368.282 173.608C355.423 149.91 330.327 133.816 301.464 133.816C279.823 133.816 260.293 142.858 246.473 157.37C233.47 171.017 225.48 189.462 225.48 209.778C225.48 251.729 259.501 285.741 301.464 285.741C343.426 285.741 375.216 253.912 377.352 213.856C379.511 213.904 381.694 213.952 383.926 214C387.548 252.593 420.034 282.79 459.573 282.79C499.113 282.79 531.55 252.665 535.245 214.12C550.384 215.103 560.917 217.789 573.201 224.194ZM510.173 369.522C525.36 342.155 529.655 301.355 515.667 293.488C500.936 285.213 481.958 322.487 426.776 336.542C414.804 339.612 389.18 346.137 358.973 339.301C319.818 330.426 303.743 306.057 291.171 313.636C279.703 320.568 282.15 347.432 288.412 364.557C301.824 401.207 340.715 414.975 351.272 418.693C374.976 427.088 395.658 425.769 409.237 424.905C421.498 424.114 438.58 423.034 458.206 414.304C467.275 410.274 494.194 398.281 510.173 369.522Z" fill="#E37091"/>
<path d="M585.437 606.932C585.917 612.952 637.093 653.056 645.49 655.167C653.719 657.23 660.341 644.638 664.372 638.329C681.503 611.537 695.706 559.584 685.821 528.979C676.776 501.012 641.675 476.067 615.212 499.261C588.076 523.03 605.399 577.622 585.437 606.932ZM556.526 662.411C569.482 689.491 619.794 683.087 639.228 665.409C640.26 661.068 626.08 655.119 622.697 652.697C612.765 645.573 600.648 636.458 591.867 628.135C589.636 626.001 581.982 614.296 579.631 614.32C562.716 626.792 545.106 638.569 556.526 662.411ZM540.979 656.031C544.794 655.047 542.587 647.636 544.026 643.414C553.887 614.584 583.83 606.5 586.973 577.646C589.996 549.75 582.15 518.353 604.439 495.807L620.394 484.629C607.966 485.517 597.145 496.718 592.203 507.608C580.855 532.601 588.292 559.537 581.359 584.578C573.633 612.425 529.511 621.012 540.979 656.031ZM578.599 688.411C552.376 682.271 538.22 675.531 530.999 648.187C530.135 644.901 531.334 639.505 530.159 637.562C528.959 635.595 517.107 635.451 513.34 624.082C509.238 611.705 514.108 605.109 513.364 594.963C512.117 578.389 487.788 513.724 479.247 497.174C474.305 487.628 469.746 480.744 464.012 475.875C464.372 475.851 464.756 475.803 465.116 475.755L502.76 474.819C517.827 501.395 527.376 537.23 534.669 559.872L558.71 557.834C566.099 524.781 569.602 484.725 609.094 476.45C613.076 475.611 617.203 475.227 621.402 475.227C654.343 475.227 692.107 499.572 697.266 532.145C707.822 599.089 660.605 707.672 578.575 688.411H578.599ZM528.335 628.039C536.829 630.75 538.124 622.211 542.995 617.294C561.997 598.153 573.633 595.251 576.464 565.077C578.407 544.474 575.456 523.15 584.837 503.434C568.859 524.589 570.274 555.939 560.917 580.86L551.416 582.851L552.616 568.147C544.938 562.918 540.691 566.972 535.917 572.609C527.208 582.875 509.262 621.899 528.335 628.039Z" fill="#E37091"/>
<path d="M645.49 655.167C637.093 653.057 585.917 612.953 585.437 606.932C605.399 577.622 588.076 523.03 615.212 499.261C641.675 476.067 676.776 501.012 685.821 528.979C695.706 559.585 681.502 611.537 664.372 638.329C660.341 644.638 653.719 657.23 645.49 655.167Z" fill="#FCEAEB"/>
<path d="M606.934 407.18C607.582 406.748 608.254 406.34 608.902 405.909C597.817 417.758 586.421 426.728 578.887 432.725C553.551 452.897 526.632 463.93 499.976 470.094C498.729 468.079 497.433 466.137 496.114 464.266C543.283 445.485 580.207 424.45 606.934 407.18Z" fill="#E37091"/>
<path d="M639.228 665.409C619.794 683.087 569.482 689.491 556.526 662.411C545.106 638.569 562.716 626.792 579.631 614.32C581.982 614.32 589.636 626.001 591.867 628.136C600.648 636.459 612.764 645.573 622.697 652.697C626.08 655.119 640.26 661.068 639.228 665.409Z" fill="#FCEAEB"/>
<path d="M573.489 72.1488C574.904 107.024 576.32 141.899 577.712 176.774C574.785 141.899 571.857 107.024 568.93 72.1488H573.489Z" fill="#E37091"/>
<path d="M544.026 643.414C542.587 647.636 544.794 655.047 540.979 656.031C529.511 621.012 573.633 612.425 581.358 584.578C588.292 559.537 580.855 532.601 592.203 507.608C597.145 496.718 607.966 485.517 620.394 484.63L604.439 495.807C582.15 518.353 589.996 549.75 586.973 577.646C583.83 606.5 553.887 614.584 544.026 643.414Z" fill="#FCEAEB"/>
<path d="M542.995 617.294C538.124 622.211 536.829 630.75 528.335 628.04C509.262 621.899 527.208 582.875 535.917 572.609C540.691 566.972 544.938 562.919 552.616 568.147L551.416 582.851L560.917 580.86C570.274 555.939 568.858 524.59 584.837 503.434C575.456 523.15 578.407 544.474 576.464 565.077C573.633 595.251 561.997 598.153 542.995 617.294Z" fill="#FCEAEB"/>
<path d="M507.27 213.688C518.403 213.544 527.448 213.592 535.245 214.12C531.55 252.665 499.089 282.79 459.573 282.79C420.058 282.79 387.548 252.593 383.926 214C386.709 214.048 389.54 214.12 392.443 214.168C399.257 214.288 405.783 214.383 411.997 214.431C415.643 237.434 435.557 254.991 459.573 254.991C483.59 254.991 503.935 237.05 507.27 213.688Z" fill="#FCEAEB"/>
<path d="M507.774 206.804C507.774 194.811 503.383 183.85 496.09 175.407C506.071 175.575 517.635 175.767 529.055 175.959C533.254 185.385 535.581 195.819 535.581 206.804C535.581 209.275 535.461 211.721 535.245 214.12C527.448 213.592 518.403 213.544 507.27 213.688C507.606 211.433 507.774 209.155 507.774 206.804Z" fill="#FCEAEB"/>
<path d="M507.774 206.804C507.774 209.155 507.606 211.433 507.27 213.688C485.605 213.928 455.998 214.863 411.997 214.431C411.613 211.961 411.397 209.395 411.397 206.804C411.397 199.68 412.956 192.892 415.763 186.8C418.57 188.215 421.713 189.031 425.072 189.031C434.309 189.031 442.107 182.938 444.698 174.567C453.023 174.711 461.349 174.831 469.674 174.975C473.681 175.047 483.614 175.215 496.09 175.407C503.383 183.85 507.774 194.811 507.774 206.804Z" fill="#E37091"/>
<path d="M502.784 474.819L465.14 475.755C476.584 474.58 488.244 472.805 499.976 470.094C500.936 471.629 501.872 473.212 502.784 474.819Z" fill="#E37091"/>
<path d="M499.976 470.094C488.244 472.805 476.584 474.58 465.14 475.755C475.912 472.061 486.253 468.223 496.114 464.266C497.433 466.137 498.729 468.079 499.976 470.094Z" fill="#E37091"/>
<path d="M507.27 213.688C503.935 237.05 483.854 254.991 459.573 254.991C435.293 254.991 415.643 237.434 411.997 214.431C455.999 214.863 485.605 213.928 507.27 213.688Z" fill="#E37091"/>
<path d="M478.023 446.133C484.741 450.378 490.739 456.662 496.114 464.266C486.253 468.223 475.912 472.061 465.14 475.755C464.78 475.803 464.396 475.851 464.036 475.875C456.718 469.663 447.505 466.736 433.206 465.777L367.419 472.061V440.712C402.663 437.354 445.898 425.817 478.047 446.133H478.023Z" fill="#E37091"/>
<path d="M433.182 465.777C447.481 466.736 456.694 469.663 464.012 475.875C446.665 477.626 429.799 478.105 413.964 478.537C398.489 478.969 382.846 479.377 367.251 479.089L367.395 472.061L433.182 465.777Z" fill="#E37091"/>
<path d="M444.698 174.567C445.298 172.648 445.61 170.61 445.61 168.499C445.61 165.909 445.13 163.414 444.242 161.135C449.065 159.528 454.223 158.641 459.573 158.641C474.185 158.641 487.284 165.141 496.09 175.407C483.614 175.215 473.681 175.047 469.674 174.975C461.349 174.831 453.023 174.711 444.698 174.567Z" fill="#E37091"/>
<path d="M445.61 168.499C445.61 170.61 445.298 172.648 444.698 174.567C444.17 174.567 443.618 174.543 443.091 174.543C435.629 174.423 429.511 174.303 424.113 174.208C429.559 168.283 436.445 163.75 444.242 161.135C445.13 163.414 445.61 165.909 445.61 168.499Z" fill="#FCEAEB"/>
<path d="M443.091 174.543C443.618 174.543 444.17 174.567 444.698 174.567C442.107 182.938 434.309 189.031 425.072 189.031C421.713 189.031 418.57 188.215 415.763 186.8C417.875 182.171 420.706 177.901 424.113 174.208C429.511 174.303 435.629 174.423 443.091 174.543Z" fill="#FCEAEB"/>
<path d="M425.072 147.967C433.83 147.967 441.291 153.436 444.242 161.135C436.445 163.75 429.559 168.283 424.113 174.208C417.011 174.112 411.205 174.016 405.279 173.944C404.799 172.217 404.535 170.394 404.535 168.499C404.535 157.154 413.724 147.967 425.072 147.967Z" fill="#FCEAEB"/>
<path d="M424.113 174.208C420.706 177.901 417.875 182.171 415.763 186.8C410.677 184.21 406.814 179.556 405.279 173.944C411.205 174.016 417.011 174.112 424.113 174.208Z" fill="#FCEAEB"/>
<path d="M415.763 186.8C412.956 192.892 411.397 199.68 411.397 206.804C411.397 209.394 411.613 211.961 411.997 214.431C405.783 214.383 399.257 214.288 392.443 214.168C389.54 214.12 386.709 214.048 383.925 214C383.71 211.625 383.59 209.227 383.59 206.804C383.59 194.955 386.301 183.754 391.147 173.752C396.306 173.8 400.816 173.872 405.279 173.944C406.814 179.556 410.677 184.21 415.763 186.8Z" fill="#FCEAEB"/>
<path d="M425.072 147.967C413.724 147.967 404.535 157.154 404.535 168.499C404.535 170.394 404.799 172.217 405.279 173.944C400.816 173.872 396.306 173.8 391.147 173.752C403.431 148.351 429.463 130.842 459.573 130.842C489.684 130.842 517.227 149.382 529.055 175.959C517.635 175.767 506.071 175.575 496.09 175.407C487.285 165.141 474.185 158.641 459.573 158.641C454.223 158.641 449.065 159.528 444.242 161.135C441.291 153.436 433.83 147.967 425.072 147.967Z" fill="#FCEAEB"/>
<path d="M377.352 213.856C366.963 213.592 357.63 213.328 349.545 213.016C349.616 211.937 349.664 210.858 349.664 209.778C349.664 196.466 344.242 184.377 335.485 175.671C337.188 172.888 342.635 173.416 346.21 173.68C353.455 174.208 360.749 173.248 367.995 173.608H368.283C374.137 184.353 377.448 196.682 377.448 209.778C377.448 211.145 377.4 212.513 377.352 213.856Z" fill="#FCEAEB"/>
<path d="M349.545 213.016C357.63 213.328 366.963 213.592 377.352 213.856C375.216 253.912 342.059 285.741 301.464 285.741C260.869 285.741 225.48 251.729 225.48 209.778C225.48 189.462 233.47 171.017 246.473 157.37L251.104 158.401C248.153 161.951 246.401 166.508 246.401 171.473C246.401 179.46 250.96 186.368 257.63 189.75C254.823 195.843 253.263 202.63 253.263 209.778C253.263 236.402 274.832 257.965 301.464 257.965C328.095 257.965 347.889 238.129 349.545 213.016Z" fill="#FCEAEB"/>
<path d="M335.005 189.918C334.957 188.335 334.933 186.464 335.149 179.556C335.245 176.294 335.269 176.006 335.485 175.671C344.242 184.377 349.664 196.466 349.664 209.778C349.664 210.858 349.616 211.937 349.544 213.016C344.362 212.872 339.708 212.68 335.629 212.513C335.629 209.131 335.581 206.18 335.533 203.806C335.485 202.295 335.389 198.145 335.149 192.676C335.053 190.518 335.053 190.83 335.005 189.918Z" fill="#E37091"/>
<path d="M301.464 161.591C314.756 161.591 326.776 166.964 335.485 175.671C335.269 176.007 335.245 176.294 335.149 179.556C334.933 186.464 334.957 188.335 335.005 189.918C335.053 190.83 335.053 190.518 335.149 192.677C335.389 198.145 335.485 202.295 335.533 203.806C335.581 206.18 335.629 209.131 335.629 212.513C339.708 212.681 344.362 212.872 349.544 213.016C347.889 238.129 326.992 257.965 301.464 257.965C275.936 257.965 253.263 236.402 253.263 209.778C253.263 202.631 254.823 195.843 257.63 189.75C260.437 191.189 263.604 192.005 266.963 192.005C278.287 192.005 287.5 182.818 287.5 171.473C287.5 168.859 287.02 166.388 286.133 164.086C290.955 162.455 296.114 161.591 301.464 161.591Z" fill="#E37091"/>
<path d="M357.87 657.734C358.182 672.101 310.965 688.052 298.273 690.882C242.779 703.306 196.785 677.522 165.211 632.045C153.863 615.735 135.461 574.192 139.923 554.452C143.714 537.806 157.102 549.894 159.477 549.439C160.197 549.295 171.641 543.754 172.409 543.178C176.008 540.612 177.615 532.001 183.517 526.316C195.106 515.187 208.757 517.442 221.257 525.333L223.537 524.613C249.113 507.32 269.17 485.781 271.018 461.124C281.094 465.537 291.339 468.919 301.704 471.485C297.121 498.373 279.031 523.438 250.768 543.226C259.285 557.69 248.585 566.492 263.58 576.47C285.029 590.742 303.815 566.468 328.911 584.242C355.926 603.382 351.992 620.148 354.583 648.259C354.919 651.929 357.822 655.503 357.87 657.734ZM154.895 574.216C153.935 568.987 152.831 563.374 151.128 557.018C150.264 553.732 150.36 551.981 147.553 555.699C150.288 610.098 183.445 655.359 226.776 675.147C264.516 692.369 309.981 690.258 349.736 657.997C346.401 655.791 344.218 658.861 341.675 660.132C322.337 669.726 304.079 676.514 286.804 679.729L285.749 673.684C301.056 670.854 335.173 659.101 342.827 649.89C347.193 644.638 343.882 621.252 341.411 614.656C331.622 588.271 307.822 580.5 283.35 592.901C274.017 597.626 271.569 598.705 269.434 609.595C268.906 612.305 270.946 615.279 270.778 616.071C270.37 618.085 268.474 619.189 267.203 620.676C256.094 613.024 260.701 598.897 269.218 591.03L248.081 577.238C242.299 583.666 233.565 591.653 225.384 584.314C223.993 575.199 235.989 578.173 241.123 572.081C245.226 567.188 247.001 555.075 241.315 550.542C226.464 563.95 209.093 573.304 203.527 546.536C201.512 541.307 215.739 532.912 210.341 530.106C197.625 523.51 185.293 534.016 183.349 547.04C180.998 562.607 203.791 571.889 203.095 577.622L199.448 582.875C186.972 576.734 177.04 566.3 173.345 552.701L160.077 561.12C160.341 565.077 160.821 569.059 161.516 573.016L154.895 574.216Z" fill="#E37091"/>
<path d="M276.296 394.132C298.465 419.557 306.022 446.325 301.704 471.485C291.339 468.919 281.094 465.537 271.017 461.124C272.097 447.332 267.443 432.533 254.823 416.99L276.296 394.132Z" fill="#E37091"/>
<path d="M286.133 164.086C287.02 166.388 287.5 168.859 287.5 171.473C287.5 182.818 278.287 192.005 266.963 192.005C263.604 192.005 260.437 191.189 257.63 189.75C263.124 177.71 273.441 168.331 286.133 164.086Z" fill="#FCEAEB"/>
<path d="M266.963 150.942C275.696 150.942 283.158 156.41 286.133 164.086C273.441 168.331 263.124 177.709 257.63 189.75C250.96 186.368 246.401 179.46 246.401 171.473C246.401 166.508 248.153 161.951 251.104 158.401C254.871 153.844 260.581 150.942 266.963 150.942Z" fill="#FCEAEB"/>
<path d="M349.736 657.998C309.981 690.258 264.516 692.369 226.776 675.147L227.279 674.02C245.73 682.271 265.523 683.71 286.804 679.729C304.079 676.515 322.337 669.727 341.675 660.132C344.218 658.861 346.401 655.791 349.736 657.998Z" fill="#FCEAEB"/>
<path d="M266.963 150.942C260.581 150.942 254.871 153.844 251.104 158.401L246.473 157.37C260.293 142.858 279.823 133.816 301.464 133.816C330.327 133.816 355.423 149.91 368.283 173.608H367.995C360.749 173.248 353.455 174.208 346.21 173.68C342.635 173.416 337.188 172.888 335.485 175.647C326.776 166.964 314.756 161.591 301.464 161.591C296.114 161.591 290.955 162.455 286.133 164.086C283.158 156.41 275.696 150.942 266.963 150.942Z" fill="#FCEAEB"/>
<path d="M168.21 216.158L212.644 299.221L188.172 312.293L159.933 259.5C161.037 246.548 163.46 231.821 168.21 216.158Z" fill="#E37091"/>
<path d="M173.345 552.701C177.039 566.301 186.972 576.734 199.448 582.875L203.095 577.622C203.791 571.889 180.998 562.607 183.349 547.04C185.293 534.016 197.625 523.51 210.341 530.106C215.739 532.913 201.512 541.308 203.527 546.536C209.093 573.304 226.464 563.95 241.315 550.542C247.001 555.075 245.226 567.188 241.123 572.081C235.989 578.173 223.993 575.199 225.384 584.314C233.565 591.653 242.299 583.666 248.081 577.238L269.218 591.03C260.701 598.897 256.094 613.025 267.203 620.676C268.474 619.189 270.37 618.086 270.778 616.071C270.946 615.279 268.906 612.305 269.434 609.595C271.569 598.705 274.017 597.626 283.35 592.901C307.822 580.5 331.622 588.271 341.411 614.656C343.882 621.252 347.193 644.638 342.827 649.891C335.173 659.101 301.056 670.854 285.749 673.684C284.717 673.852 283.781 674.02 282.942 674.116C223.585 681.528 171.353 628.735 161.516 573.017C160.821 569.059 160.341 565.077 160.077 561.12L173.345 552.701Z" fill="#FCEAEB"/>
<path d="M171.785 621.492C159.357 602.111 157.774 589.855 154.895 574.216L161.516 573.017C171.353 628.735 223.585 681.528 282.942 674.116C283.781 674.02 284.717 673.852 285.749 673.684L286.804 679.729C265.523 683.71 245.73 682.271 227.279 674.02C207.294 665.073 188.868 648.164 171.785 621.492Z" fill="#E37091"/>
<path d="M151.128 557.018C152.831 563.374 153.935 568.987 154.895 574.216C157.774 589.854 159.357 602.111 171.785 621.491C188.868 648.163 207.294 665.073 227.28 674.02L226.776 675.147C183.446 655.359 150.288 610.098 147.553 555.699C150.36 551.981 150.264 553.732 151.128 557.018Z" fill="#FCEAEB"/>
<path d="M156.094 154.132C169.386 139.285 166.939 118.993 158.278 95.127C155.182 86.5641 143.954 56.1024 131.526 67.6875C124.256 74.4754 135.053 93.3521 134.237 103.186C133.11 117.146 120.586 126.308 124.232 142.451C125.168 146.6 132.174 150.39 124.112 153.892C103.215 141.059 126.848 115.227 126.608 100.884C126.368 86.3003 108.229 30.2939 99.7842 18.6848C94.2899 11.1294 79.1028 0.671624 73.3926 13.0002C69.6978 20.9635 76.8235 38.0892 83.8053 53.392L77.0634 55.8865C69.2659 39.3844 52.2314 7.93927 35.0049 23.1701C33.2294 24.7532 32.0778 26.6481 31.478 28.8068L24.8081 27.8473C29.3906 12.3286 48.9204 4.74918 63.8436 21.0114C65.859 17.2697 64.6354 12.8803 67.1066 8.56289C73.9684 -3.40593 89.1316 -1.631 98.3206 6.57209C113.508 20.1 118.57 44.3734 125.48 62.7464C148.177 45.8366 160.821 79.1046 166.531 96.3263C172.145 113.212 178.839 145.281 162.212 157.154L156.094 154.132Z" fill="#E37091"/>
<path d="M121.113 181.187L107.27 190.446C110.341 202.583 125 197.857 133.709 194.068C143.33 189.87 170.154 175.647 157.63 163.702L136.229 173.104L133.062 168.811C143.474 164.805 150.96 159.864 156.094 154.132L162.212 157.154C174.952 168.787 166.939 182.866 154.583 190.686L168.21 216.158C163.46 231.821 161.037 246.548 159.933 259.5L130.542 204.525C123.177 203.59 117.587 207.763 110.029 204.621C100.288 200.568 101.704 193.252 98.8245 191.045C98.1047 190.494 93.6422 189.462 89.0836 188.263L90.7391 182.051C98.9205 184.042 108.325 182.65 119.29 176.174L121.113 181.187Z" fill="#E37091"/>
<path d="M158.277 95.1269C166.939 118.993 169.386 139.284 156.094 154.132C150.96 159.864 143.474 164.805 133.062 168.811L136.229 173.104L157.63 163.702C170.154 175.647 143.33 189.87 133.709 194.068C125 197.857 110.341 202.583 107.27 190.446L121.113 181.187L119.29 176.174C108.325 182.65 98.9204 184.042 90.739 182.051C69.8657 177.062 56.7659 150.27 45.3935 130.074C43.6661 127.028 43.738 123.358 42.0586 120.36C35.2448 108.247 23.7524 95.9424 15.787 84.0216C13.9635 81.2632 12.3081 78.5289 10.9645 75.8185C1.79943 57.4455 14.2754 46.1003 28.5989 59.0525C32.5336 62.5784 59.7889 99.0606 59.549 101.699L52.8551 110.55C53.0471 112.732 56.262 115.131 57.9175 114.627C59.3091 114.195 72.7208 97.6694 78.263 93.9276C83.2294 90.5936 91.0509 86.612 96.5932 84.1415C102.303 81.5511 115.115 82.6544 107.246 74.3554L94.146 77.4255C92.5864 71.9808 88.2198 63.0581 83.8053 53.3919C76.8235 38.0891 69.6978 20.9634 73.3926 13.0001C79.1028 0.671537 94.2899 11.1293 99.7841 18.6847C108.229 30.2938 126.368 86.3002 126.608 100.883C126.848 115.227 103.215 141.059 124.112 153.892C132.174 150.39 125.168 146.6 124.232 142.451C120.586 126.308 133.11 117.146 134.237 103.186C135.053 93.352 124.256 74.4753 131.526 67.6874C143.954 56.1023 155.182 86.5641 158.277 95.1269Z" fill="#FCEAEB"/>
<path d="M64.3235 95.4387C58.4453 82.1267 26.4636 46.7239 31.478 28.8067C32.0778 26.648 33.2294 24.7531 35.0048 23.1701C52.2313 7.9392 69.2659 39.3843 77.0634 55.8865C77.9751 57.8053 78.7429 59.5323 79.3907 60.9474C80.7582 64.0176 85.1968 74.6192 85.6287 76.9218C86.5644 82.3186 68.1622 91.2413 64.3235 95.4387Z" fill="#FCEAEB"/>
<path d="M80.0144 185.217C50.8877 169.554 44.8657 139.596 28.7428 113.524C25.1679 107.767 16.5307 97.6215 9.6449 86.8279L15.7869 84.0216C23.7524 95.9425 35.2447 108.247 42.0586 120.36C43.738 123.358 43.666 127.028 45.3935 130.074C56.7659 150.27 69.8657 177.062 90.739 182.051L89.0835 188.263C85.5567 187.328 81.9338 186.272 80.0144 185.217Z" fill="#E37091"/>
<path d="M107.246 74.3554C115.115 82.6544 102.303 81.5511 96.5931 84.1415C91.0509 86.6121 83.2294 90.5937 78.263 93.9277C72.7208 97.6694 59.309 114.196 57.9175 114.627C56.262 115.131 53.047 112.732 52.8551 110.55L59.549 101.699C59.7889 99.0606 32.5336 62.5785 28.5988 59.0526C14.2754 46.1004 1.7994 57.4455 10.9645 75.8185C12.308 78.5289 13.9635 81.2633 15.7869 84.0216L9.64489 86.8279C-0.0480149 71.645 -6.23804 55.1909 10.1247 47.8513C16.4347 45.021 20.7773 48.403 26.5355 46.8679C23.4405 39.984 23.1526 33.412 24.8081 27.8473L31.4779 28.8067C26.4635 46.724 58.4453 82.1268 64.3234 95.4388C68.1622 91.2413 86.5643 82.3186 85.6286 76.9219C85.1968 74.6193 80.7582 64.0176 79.3906 60.9474C78.7428 59.5323 77.9751 57.8053 77.0634 55.8865L83.8052 53.392C88.2198 63.0582 92.5864 71.9808 94.1459 77.4256L107.246 74.3554Z" fill="#E37091"/>
</g>
<defs>
<clipPath id="clip0_62_326">
<rect width="1053" height="694" fill="white"/>
</clipPath>
</defs>
</svg>
